#Comment line ignore any data following # character 
#Hierarchical Translation and Rotation (.htr) file 
[Header]	
#Header keywords are followed by a single value 
FileType HTR		#Single word string
DataType HTRS		#Translation followed by rotation and scale data
FileVersion 1		#integer
NumSegments 84		#integer
NumFrames 2		#integer
DataFrameRate 30		#integer, data frame rate in this file
EulerRotationOrder ZYX
CalibrationUnits mm
RotationUnits Degrees
GlobalAxisofGravity Y
BoneLengthAxis Y
ScaleFactor 1.00
[SegmentNames&Hierarchy]
#CHILD	PARENT
MASTER GLOBAL
root MASTER
chest root
L_mid_tent01 root
R_mid_tent01 root
spine01 root
Bip01_Neck chest
L_humerus chest
R_humerus chest
weapon_bone chest
Bip01_Head Bip01_Neck
eye_left_bone Bip01_Head
eye_right_bone Bip01_Head
L_forearm L_humerus
L_front_hand L_forearm
L_weapon_bone L_forearm
L_front_hand01_01 L_front_hand
L_front_hand02_01 L_front_hand
L_front_hand03_01 L_front_hand
L_front_hand01_02 L_front_hand01_01
L_front_hand02_02 L_front_hand02_01
L_front_hand03_02 L_front_hand03_01
R_forearm R_humerus
R_front_hand R_forearm
R_weapon_bone R_forearm
R_front_hand01_01 R_front_hand
R_front_hand02_01 R_front_hand
R_front_hand03_01 R_front_hand
R_front_hand01_02 R_front_hand01_01
R_front_hand02_02 R_front_hand02_01
R_front_hand03_02 R_front_hand03_01
null_rope01_connect L_mid_tent01
Rope1_Seg01 null_rope01_connect
Rope1_Seg02 Rope1_Seg01
Rope1_Seg03 Rope1_Seg02
Rope1_Seg04 Rope1_Seg03
Rope1_Seg05 Rope1_Seg04
Rope1_Seg06 Rope1_Seg05
Rope1_Seg07 Rope1_Seg06
Rope1_Seg09 Rope1_Seg07
L_mid_hand01 Rope1_Seg09
L_mid_hand02 Rope1_Seg09
L_mid_hand03 Rope1_Seg09
null_rope02_connect R_mid_tent01
Rope2_Seg01 null_rope02_connect
Rope2_Seg02 Rope2_Seg01
Rope2_Seg03 Rope2_Seg02
Rope2_Seg04 Rope2_Seg03
Rope2_Seg05 Rope2_Seg04
Rope2_Seg06 Rope2_Seg05
Rope2_Seg07 Rope2_Seg06
Rope2_Seg09 Rope2_Seg07
R_mid_hand01 Rope2_Seg09
R_mid_hand02 Rope2_Seg09
R_mid_hand03 Rope2_Seg09
spine02 spine01
spine03 spine02
pelvis spine03
null_rope03_connect pelvis
null_rope04_connect pelvis
Rope3_Seg01 null_rope03_connect
Rope3_Seg02 Rope3_Seg01
Rope3_Seg03 Rope3_Seg02
Rope3_Seg04 Rope3_Seg03
Rope3_Seg05 Rope3_Seg04
Rope3_Seg06 Rope3_Seg05
Rope3_Seg07 Rope3_Seg06
Rope3_Seg08 Rope3_Seg07
Rope3_Seg09 Rope3_Seg08
R_rear_hand01 Rope3_Seg09
R_rear_hand02 Rope3_Seg09
R_rear_hand03 Rope3_Seg09
Rope4_Seg01 null_rope04_connect
Rope4_Seg02 Rope4_Seg01
Rope4_Seg03 Rope4_Seg02
Rope4_Seg04 Rope4_Seg03
Rope4_Seg05 Rope4_Seg04
Rope4_Seg06 Rope4_Seg05
Rope4_Seg07 Rope4_Seg06
Rope4_Seg08 Rope4_Seg07
Rope4_Seg09 Rope4_Seg08
L_rear_hand01 Rope4_Seg09
L_rear_hand02 Rope4_Seg09
L_rear_hand03 Rope4_Seg09
[BasePosition]
#SegmentName Tx, Ty, Tz, Rx, Ry, Rz, BoneLength
MASTER 0.000000 0.000000 0.000000 -90.000000 0.000000 0.000000 10.000000 
root 0.000000 0.000000 0.000000 0.000000 0.000000 0.000000 10.000000 
chest 0.000000 0.000000 0.000000 0.000000 0.000000 0.000000 10.000000 
L_mid_tent01 0.000000 0.000000 0.000000 0.000000 0.000000 0.000000 10.000000 
R_mid_tent01 0.000000 0.000000 0.000000 0.000000 0.000000 0.000000 10.000000 
spine01 0.000000 0.000000 0.000000 0.000000 0.000000 0.000000 10.000000 
Bip01_Neck 0.000000 0.000000 0.000000 0.000000 0.000000 0.000000 10.000000 
L_humerus 0.000000 0.000000 0.000000 0.000000 0.000000 0.000000 10.000000 
R_humerus 0.000000 0.000000 0.000000 0.000000 0.000000 0.000000 10.000000 
weapon_bone 0.000000 0.000000 0.000000 0.000000 0.000000 0.000000 10.000000 
Bip01_Head 0.000000 0.000000 0.000000 0.000000 0.000000 0.000000 10.000000 
eye_left_bone 0.000000 0.000000 0.000000 0.000000 0.000000 0.000000 10.000000 
eye_right_bone 0.000000 0.000000 0.000000 0.000000 0.000000 0.000000 10.000000 
L_forearm 0.000000 0.000000 0.000000 0.000000 0.000000 0.000000 10.000000 
L_front_hand 0.000000 0.000000 0.000000 0.000000 0.000000 0.000000 10.000000 
L_weapon_bone 0.000000 0.000000 0.000000 0.000000 0.000000 0.000000 10.000000 
L_front_hand01_01 0.000000 0.000000 0.000000 0.000000 0.000000 0.000000 10.000000 
L_front_hand02_01 0.000000 0.000000 0.000000 0.000000 0.000000 0.000000 10.000000 
L_front_hand03_01 0.000000 0.000000 0.000000 0.000000 0.000000 0.000000 10.000000 
L_front_hand01_02 0.000000 0.000000 0.000000 0.000000 0.000000 0.000000 10.000000 
L_front_hand02_02 0.000000 0.000000 0.000000 0.000000 0.000000 0.000000 10.000000 
L_front_hand03_02 0.000000 0.000000 0.000000 0.000000 0.000000 0.000000 10.000000 
R_forearm 0.000000 0.000000 0.000000 0.000000 0.000000 0.000000 10.000000 
R_front_hand 0.000000 0.000000 0.000000 0.000000 0.000000 0.000000 10.000000 
R_weapon_bone 0.000000 0.000000 0.000000 0.000000 0.000000 0.000000 10.000000 
R_front_hand01_01 0.000000 0.000000 0.000000 0.000000 0.000000 0.000000 10.000000 
R_front_hand02_01 0.000000 0.000000 0.000000 0.000000 0.000000 0.000000 10.000000 
R_front_hand03_01 0.000000 0.000000 0.000000 0.000000 0.000000 0.000000 10.000000 
R_front_hand01_02 0.000000 0.000000 0.000000 0.000000 0.000000 0.000000 10.000000 
R_front_hand02_02 0.000000 0.000000 0.000000 0.000000 0.000000 0.000000 10.000000 
R_front_hand03_02 0.000000 0.000000 0.000000 0.000000 0.000000 0.000000 10.000000 
null_rope01_connect 0.000000 0.000000 0.000000 0.000000 0.000000 0.000000 10.000000 
Rope1_Seg01 0.000000 0.000000 0.000000 0.000000 0.000000 0.000000 10.000000 
Rope1_Seg02 0.000000 0.000000 0.000000 0.000000 0.000000 0.000000 10.000000 
Rope1_Seg03 0.000000 0.000000 0.000000 0.000000 0.000000 0.000000 10.000000 
Rope1_Seg04 0.000000 0.000000 0.000000 0.000000 0.000000 0.000000 10.000000 
Rope1_Seg05 0.000000 0.000000 0.000000 0.000000 0.000000 0.000000 10.000000 
Rope1_Seg06 0.000000 0.000000 0.000000 0.000000 0.000000 0.000000 10.000000 
Rope1_Seg07 0.000000 0.000000 0.000000 0.000000 0.000000 0.000000 10.000000 
Rope1_Seg09 0.000000 0.000000 0.000000 0.000000 0.000000 0.000000 10.000000 
L_mid_hand01 0.000000 0.000000 0.000000 0.000000 0.000000 0.000000 10.000000 
L_mid_hand02 0.000000 0.000000 0.000000 0.000000 0.000000 0.000000 10.000000 
L_mid_hand03 0.000000 0.000000 0.000000 0.000000 0.000000 0.000000 10.000000 
null_rope02_connect 0.000000 0.000000 0.000000 0.000000 0.000000 0.000000 10.000000 
Rope2_Seg01 0.000000 0.000000 0.000000 0.000000 0.000000 0.000000 10.000000 
Rope2_Seg02 0.000000 0.000000 0.000000 0.000000 0.000000 0.000000 10.000000 
Rope2_Seg03 0.000000 0.000000 0.000000 0.000000 0.000000 0.000000 10.000000 
Rope2_Seg04 0.000000 0.000000 0.000000 0.000000 0.000000 0.000000 10.000000 
Rope2_Seg05 0.000000 0.000000 0.000000 0.000000 0.000000 0.000000 10.000000 
Rope2_Seg06 0.000000 0.000000 0.000000 0.000000 0.000000 0.000000 10.000000 
Rope2_Seg07 0.000000 0.000000 0.000000 0.000000 0.000000 0.000000 10.000000 
Rope2_Seg09 0.000000 0.000000 0.000000 0.000000 0.000000 0.000000 10.000000 
R_mid_hand01 0.000000 0.000000 0.000000 0.000000 0.000000 0.000000 10.000000 
R_mid_hand02 0.000000 0.000000 0.000000 0.000000 0.000000 0.000000 10.000000 
R_mid_hand03 0.000000 0.000000 0.000000 0.000000 0.000000 0.000000 10.000000 
spine02 0.000000 0.000000 0.000000 0.000000 0.000000 0.000000 10.000000 
spine03 0.000000 0.000000 0.000000 0.000000 0.000000 0.000000 10.000000 
pelvis 0.000000 0.000000 0.000000 0.000000 0.000000 0.000000 10.000000 
null_rope03_connect 0.000000 0.000000 0.000000 0.000000 0.000000 0.000000 10.000000 
null_rope04_connect 0.000000 0.000000 0.000000 0.000000 0.000000 0.000000 10.000000 
Rope3_Seg01 0.000000 0.000000 0.000000 0.000000 0.000000 0.000000 10.000000 
Rope3_Seg02 0.000000 0.000000 0.000000 0.000000 0.000000 0.000000 10.000000 
Rope3_Seg03 0.000000 0.000000 0.000000 0.000000 0.000000 0.000000 10.000000 
Rope3_Seg04 0.000000 0.000000 0.000000 0.000000 0.000000 0.000000 10.000000 
Rope3_Seg05 0.000000 0.000000 0.000000 0.000000 0.000000 0.000000 10.000000 
Rope3_Seg06 0.000000 0.000000 0.000000 0.000000 0.000000 0.000000 10.000000 
Rope3_Seg07 0.000000 0.000000 0.000000 0.000000 0.000000 0.000000 10.000000 
Rope3_Seg08 0.000000 0.000000 0.000000 0.000000 0.000000 0.000000 10.000000 
Rope3_Seg09 0.000000 0.000000 0.000000 0.000000 0.000000 0.000000 10.000000 
R_rear_hand01 0.000000 0.000000 0.000000 0.000000 0.000000 0.000000 10.000000 
R_rear_hand02 0.000000 0.000000 0.000000 0.000000 0.000000 0.000000 10.000000 
R_rear_hand03 0.000000 0.000000 0.000000 0.000000 0.000000 0.000000 10.000000 
Rope4_Seg01 0.000000 0.000000 0.000000 0.000000 0.000000 0.000000 10.000000 
Rope4_Seg02 0.000000 0.000000 0.000000 0.000000 0.000000 0.000000 10.000000 
Rope4_Seg03 0.000000 0.000000 0.000000 0.000000 0.000000 0.000000 10.000000 
Rope4_Seg04 0.000000 0.000000 0.000000 0.000000 0.000000 0.000000 10.000000 
Rope4_Seg05 0.000000 0.000000 0.000000 0.000000 0.000000 0.000000 10.000000 
Rope4_Seg06 0.000000 0.000000 0.000000 0.000000 0.000000 0.000000 10.000000 
Rope4_Seg07 0.000000 0.000000 0.000000 0.000000 0.000000 0.000000 10.000000 
Rope4_Seg08 0.000000 0.000000 0.000000 0.000000 0.000000 0.000000 10.000000 
Rope4_Seg09 0.000000 0.000000 0.000000 0.000000 0.000000 0.000000 10.000000 
L_rear_hand01 0.000000 0.000000 0.000000 0.000000 0.000000 0.000000 10.000000 
L_rear_hand02 0.000000 0.000000 0.000000 0.000000 0.000000 0.000000 10.000000 
L_rear_hand03 0.000000 0.000000 0.000000 0.000000 0.000000 0.000000 10.000000 
#Beginning of Data. Separated by tabs
#Fr	Tx	Ty	Tz	Rx	Ry	Rz	SF
[MASTER]
26 0.000000 0.000000 0.000000 0.001660 0.001660 0.001660 0.000000
27 0.000000 0.000000 0.000000 0.001660 0.001660 0.001660 0.000000
[root]
26 -36.623486 9.826323 1455.023682 -91.706375 7.188744 -90.037125 1455.517700
27 -37.550861 10.995632 1459.373535 -91.706375 7.188744 -90.037125 1459.897949
[chest]
26 -84.512650 -34.090519 0.000000 -2.117274 0.462005 -179.268204 91.129311
27 -84.512650 -34.090519 0.000000 -2.117274 0.462005 -179.268204 91.129311
[L_mid_tent01]
26 27.299511 22.177458 -249.918259 -11.212391 7.173965 46.128521 252.381134
27 27.299511 22.177458 -249.918259 -11.212391 7.173965 46.128521 252.381134
[R_mid_tent01]
26 23.228794 24.509907 226.238495 -173.453110 -7.865565 48.320805 228.744751
27 23.228794 24.509907 226.238495 -173.453110 -7.865564 48.320797 228.744751
[spine01]
26 -0.361383 -0.195265 0.000000 -0.000001 -0.000007 22.052340 0.410763
27 -0.361383 -0.195265 0.000000 -0.000001 -0.000007 22.052340 0.410763
[Bip01_Neck]
26 165.484543 71.581718 0.000119 175.896118 1.177290 24.871183 180.302734
27 165.484543 71.581718 0.000119 175.896118 1.177290 24.871183 180.302734
[L_humerus]
26 -13.983130 -135.272980 -120.471481 177.317520 0.814944 177.327347 181.680161
27 -13.983130 -135.272980 -120.471481 177.317520 0.814944 177.327347 181.680161
[R_humerus]
26 -13.983309 -135.273102 125.287651 -179.087967 -0.295690 175.068390 184.909012
27 -13.983309 -135.273102 125.287651 -179.087967 -0.295690 175.068390 184.909012
[weapon_bone]
26 235.964890 -300.705902 0.000000 0.000000 -89.951546 -128.212341 382.234833
27 235.964890 -300.705902 0.000000 0.000000 -89.951546 -128.212341 382.234833
[Bip01_Head]
26 97.775497 22.186661 5.309563 3.366011 3.339070 -18.399073 100.401627
27 97.775497 22.186661 5.309563 3.366012 3.339071 -18.399078 100.401627
[eye_left_bone]
26 -24.626970 125.451866 -64.772606 0.000000 -90.000000 -99.840431 143.318359
27 -24.626970 125.451866 -64.772606 0.000000 -90.000000 -99.840431 143.318359
[eye_right_bone]
26 -24.626970 125.451866 64.327362 0.000000 -89.965736 80.156380 143.117676
27 -24.626970 125.451866 64.327362 0.000000 -89.965736 80.156380 143.117676
[L_forearm]
26 322.776093 0.000000 -0.000119 0.001372 -0.001904 -161.553818 322.776093
27 322.776093 0.000000 -0.000119 0.001372 -0.001904 -161.553818 322.776093
[L_front_hand]
26 241.149185 -0.042021 -3.300071 -179.659958 -2.242151 -0.019832 241.171753
27 241.149185 -0.042021 -3.300071 -179.659958 -2.242151 -0.019832 241.171753
[L_weapon_bone]
26 156.183838 0.000000 0.000000 0.000014 0.000007 0.000001 156.183838
27 156.183838 0.000000 0.000000 0.000014 0.000007 0.000001 156.183838
[L_front_hand01_01]
26 86.095154 20.947098 -0.655860 0.405585 -0.442306 -4.620490 88.609184
27 86.095154 20.947098 -0.655860 0.405585 -0.442306 -4.620490 88.609184
[L_front_hand02_01]
26 86.935165 -11.437475 24.513514 116.959450 3.630818 1.495453 91.046425
27 86.935165 -11.437475 24.513514 116.959450 3.630817 1.495453 91.046425
[L_front_hand03_01]
26 86.637497 -14.123976 -20.424902 -118.419884 -4.660555 -0.155069 90.126129
27 86.637497 -14.123976 -20.424902 -118.419884 -4.660555 -0.155069 90.126129
[L_front_hand01_02]
26 71.020905 -0.000179 0.000030 0.000004 -0.000005 -8.379269 71.020905
27 71.020905 -0.000179 0.000030 0.000004 -0.000005 -8.379269 71.020905
[L_front_hand02_02]
26 71.020927 -0.000119 0.000060 -0.000005 -0.000004 -8.379259 71.020927
27 71.020927 -0.000119 0.000060 -0.000005 -0.000004 -8.379259 71.020927
[L_front_hand03_02]
26 71.020905 -0.000060 0.000060 0.000015 -0.000040 -8.379267 71.020905
27 71.020905 -0.000060 0.000060 0.000015 -0.000040 -8.379267 71.020905
[R_forearm]
26 322.776428 -0.000060 0.000030 0.066610 0.203476 -163.260239 322.776428
27 322.776428 -0.000060 0.000030 0.066610 0.203476 -163.260239 322.776428
[R_front_hand]
26 238.847015 -0.006795 2.210259 -0.270529 1.703932 2.322530 238.857239
27 238.847015 -0.006795 2.210259 -0.270529 1.703932 2.322530 238.857239
[R_weapon_bone]
26 155.664093 0.002503 -0.000030 0.003487 0.001180 -90.988930 155.664078
27 155.664093 0.002503 -0.000030 0.003487 0.001180 -90.988930 155.664078
[R_front_hand01_01]
26 87.624611 14.231146 22.918642 -116.960213 3.496675 -1.324139 91.683487
27 87.624611 14.231146 22.918642 -116.960213 3.496675 -1.324139 91.683487
[R_front_hand02_01]
26 89.356956 14.367283 -19.491137 118.419647 -4.257089 0.609827 92.579636
27 89.356956 14.367283 -19.491137 118.419647 -4.257089 0.609827 92.579636
[R_front_hand03_01]
26 87.286232 -22.307278 -0.143439 -0.387970 -0.231462 4.232001 90.091743
27 87.286232 -22.307278 -0.143439 -0.387970 -0.231462 4.232001 90.091743
[R_front_hand01_02]
26 71.020905 0.000060 0.000119 -0.000005 -0.000020 8.379271 71.020905
27 71.020905 0.000060 0.000119 -0.000005 -0.000020 8.379271 71.020905
[R_front_hand02_02]
26 71.020844 -0.000030 -0.000119 0.000000 -0.000021 8.379271 71.020836
27 71.020844 -0.000030 -0.000119 0.000000 -0.000021 8.379271 71.020836
[R_front_hand03_02]
26 71.020905 0.000000 0.000030 -0.000001 -0.000020 8.379275 71.020905
27 71.020905 0.000000 0.000030 -0.000001 -0.000020 8.379275 71.020905
[null_rope01_connect]
26 328.732483 0.000000 -0.000238 160.552872 -75.066147 -124.625038 328.732483
27 328.732483 0.000000 -0.000238 160.552872 -75.066147 -124.625038 328.732483
[Rope1_Seg01]
26 0.000000 0.000000 0.000000 -135.903641 54.404312 -122.355782 0.000000
27 0.000000 0.000000 0.000000 -133.213333 54.942078 -120.892723 0.000000
[Rope1_Seg02]
26 139.999863 -0.000179 0.000000 26.480883 -0.510624 -14.985859 139.999863
27 139.999863 -0.000179 0.000000 24.132587 -0.253066 -14.351430 139.999863
[Rope1_Seg03]
26 139.999924 0.000060 -0.000060 26.403196 -3.515739 -9.216373 139.999924
27 139.999924 0.000060 -0.000060 23.804823 -2.757219 -8.807285 139.999924
[Rope1_Seg04]
26 139.999924 -0.000060 -0.000119 18.919580 -3.112866 -5.529357 139.999924
27 139.999924 -0.000060 -0.000119 17.116100 -2.158649 -5.372098 139.999924
[Rope1_Seg05]
26 139.999832 0.000119 -0.000060 7.810412 -5.370252 1.178227 139.999832
27 139.999832 0.000119 -0.000060 10.064623 -5.491479 0.337876 139.999832
[Rope1_Seg06]
26 139.999954 0.000119 -0.000060 0.741242 -7.775949 7.600970 139.999954
27 139.999954 0.000119 -0.000060 3.678819 -9.066417 6.459532 139.999954
[Rope1_Seg07]
26 139.999985 0.000060 0.000000 -0.353638 -8.766352 9.419051 139.999985
27 139.999985 0.000060 0.000000 1.153166 -10.049588 8.746791 139.999985
[Rope1_Seg09]
26 121.602913 0.000119 -0.000089 -89.793175 -1.359789 0.847147 121.602913
27 121.602913 0.000119 -0.000089 -89.793175 -1.359789 0.847147 121.602913
[L_mid_hand01]
26 103.859421 1.038730 8.195221 106.855484 -31.239275 -9.461397 104.187431
27 103.859421 1.038730 8.195221 106.855484 -31.239275 -9.461397 104.187431
[L_mid_hand02]
26 105.572853 -4.139662 -10.864139 -142.331345 25.752670 -28.774628 106.211075
27 105.572853 -4.139662 -10.864139 -142.331345 25.752670 -28.774628 106.211075
[L_mid_hand03]
26 104.641464 17.579376 -3.913581 -16.122810 9.734291 34.223598 106.179977
27 104.641464 17.579376 -3.913581 -16.122810 9.734291 34.223598 106.179977
[null_rope02_connect]
26 328.732849 0.000179 -0.000119 174.610336 81.478409 -39.424759 328.732849
27 328.732849 0.000179 -0.000119 174.610336 81.478409 -39.424759 328.732849
[Rope2_Seg01]
26 0.000076 0.000111 0.000153 150.533859 55.778687 -80.965378 0.000204
27 0.000076 0.000111 0.000153 146.571930 56.097359 -84.734161 0.000204
[Rope2_Seg02]
26 139.999741 -0.000060 -0.000119 -6.144099 13.749234 -1.408246 139.999756
27 139.999741 -0.000060 -0.000119 -4.984221 14.505685 -2.724059 139.999756
[Rope2_Seg03]
26 140.000107 0.000030 0.000000 8.437006 17.388968 -11.120717 140.000107
27 140.000107 0.000030 0.000000 13.332182 17.458443 -12.731187 140.000107
[Rope2_Seg04]
26 139.999802 0.000000 -0.000060 -50.961075 8.797638 10.349356 139.999802
27 139.999802 0.000000 -0.000060 -52.493233 9.994350 7.248120 139.999802
[Rope2_Seg05]
26 139.999985 -0.000060 0.000119 -13.152699 -24.183901 20.646257 139.999985
27 139.999985 -0.000060 0.000119 -18.328510 -21.740547 23.127863 139.999985
[Rope2_Seg06]
26 139.999893 -0.000030 -0.000119 -1.590303 -8.446473 5.551932 139.999893
27 139.999893 -0.000030 -0.000119 -1.974768 -8.903459 6.047180 139.999893
[Rope2_Seg07]
26 139.999893 0.000060 -0.000060 -0.617063 -3.986839 2.700658 139.999893
27 139.999893 0.000060 -0.000060 -0.749365 -4.091697 2.869416 139.999893
[Rope2_Seg09]
26 121.338966 0.000089 -0.000060 33.793236 -1.359788 -0.847141 121.338966
27 121.338966 0.000089 -0.000060 33.793236 -1.359788 -0.847141 121.338966
[R_mid_hand01]
26 104.680779 11.144459 -10.335981 -41.523792 25.424656 28.595957 105.778534
27 104.680779 11.144459 -10.335981 -41.523792 25.424656 28.595957 105.778534
[R_mid_hand02]
26 104.070427 2.443552 8.231699 72.847389 -32.746803 10.013901 104.424065
27 104.070427 2.443552 8.231699 72.847389 -32.746803 10.013901 104.424065
[R_mid_hand03]
26 106.028137 -11.221827 -5.996406 -167.901306 10.259192 -37.009720 106.788818
27 106.028137 -11.221827 -5.996406 -167.901306 10.259192 -37.009720 106.788818
[spine02]
26 129.756927 0.001550 0.000119 0.360061 -4.044797 -12.915058 129.756927
27 129.756927 0.001550 0.000119 0.360061 -4.044797 -12.915058 129.756927
[spine03]
26 78.613846 0.087372 -4.898873 1.896495 3.831288 16.473045 78.766380
27 78.613846 0.087372 -4.898873 1.896495 3.831288 16.473045 78.766380
[pelvis]
26 169.435242 0.051022 0.000000 -0.060465 -0.180225 14.087930 169.435257
27 169.435242 0.051022 0.000000 -0.060465 -0.180225 14.087930 169.435257
[null_rope03_connect]
26 -1.257226 -2.466202 137.391083 -168.629776 -89.386429 -148.244614 137.418976
27 -1.257226 -2.466202 137.391083 -168.629776 -89.386429 -148.244614 137.418976
[null_rope04_connect]
26 -1.259640 -2.480268 -137.844437 -168.629776 -89.386429 -148.244614 137.872513
27 -1.259640 -2.480268 -137.844437 -168.629776 -89.386429 -148.244614 137.872513
[Rope3_Seg01]
26 0.000000 0.000000 0.000000 -138.205826 16.260880 -110.393806 0.000000
27 0.000000 0.000000 0.000000 -136.988358 14.533147 -110.236763 0.000000
[Rope3_Seg02]
26 139.999924 -0.000119 0.000060 -1.670667 -7.875959 -5.334124 139.999924
27 139.999924 -0.000119 0.000060 -2.210135 -8.358150 -4.435782 139.999924
[Rope3_Seg03]
26 139.999924 -0.000119 0.000119 -0.910918 -10.472030 -7.574033 139.999924
27 139.999924 -0.000119 0.000119 -1.428759 -10.921950 -6.319390 139.999924
[Rope3_Seg04]
26 139.999924 0.000119 0.000000 1.254719 -17.131004 -12.379595 139.999924
27 139.999924 0.000119 0.000000 0.454504 -17.043354 -9.764816 139.999924
[Rope3_Seg05]
26 139.999924 -0.000238 0.000060 0.070584 -0.966229 -2.892570 139.999924
27 139.999924 -0.000238 0.000060 0.151514 -1.666191 -3.498055 139.999924
[Rope3_Seg06]
26 139.999893 -0.000119 -0.000060 0.394010 10.578396 4.236095 139.999893
27 139.999893 -0.000119 -0.000060 0.153451 8.738059 1.402264 139.999893
[Rope3_Seg07]
26 139.999771 0.000060 -0.000119 0.673778 4.161611 0.926882 139.999771
27 139.999771 0.000060 -0.000119 0.514359 2.986326 -0.449988 139.999771
[Rope3_Seg08]
26 139.999985 -0.000060 0.000000 0.715689 2.654697 0.498119 139.999985
27 139.999985 -0.000060 0.000000 0.574183 1.873152 -0.379715 139.999985
[Rope3_Seg09]
26 90.185997 -0.000179 -0.000060 89.793228 -1.359877 -0.847183 90.185997
27 90.185997 -0.000179 -0.000060 89.793228 -1.359877 -0.847183 90.185997
[R_rear_hand01]
26 103.366196 -6.073594 -10.757982 -161.551193 16.666374 -30.088671 104.101845
27 103.366196 -6.073594 -10.757982 -161.551193 16.666374 -30.088671 104.101845
[R_rear_hand02]
26 100.509819 12.039542 -7.992327 -34.280552 19.289745 28.875523 101.543350
27 100.509819 12.039542 -7.992327 -34.280552 19.289745 28.875523 101.543350
[R_rear_hand03]
26 101.539970 5.215704 5.435467 83.366440 -30.933914 7.284830 101.819031
27 101.539970 5.215704 5.435467 83.366440 -30.933914 7.284830 101.819031
[Rope4_Seg01]
26 0.000010 0.000038 -0.000114 39.969879 20.014843 -123.040642 0.000121
27 0.000010 0.000038 -0.000114 39.691723 21.065010 -123.174156 0.000121
[Rope4_Seg02]
26 139.999985 0.000060 0.000119 0.979210 7.486744 7.490721 139.999985
27 139.999985 0.000060 0.000119 0.962020 6.674068 7.350402 139.999985
[Rope4_Seg03]
26 139.999924 0.000000 -0.000238 0.833789 11.760136 11.727057 139.999924
27 139.999924 0.000000 -0.000238 0.755634 10.523554 11.508740 139.999924
[Rope4_Seg04]
26 139.999985 0.000000 0.000119 -1.405829 21.626562 23.231842 139.999985
27 139.999985 0.000000 0.000119 -1.576692 19.873039 23.265619 139.999985
[Rope4_Seg05]
26 139.999802 -0.000060 -0.000119 -2.267459 4.056994 4.738869 139.999802
27 139.999802 -0.000060 -0.000119 -2.814404 4.694070 6.033829 139.999802
[Rope4_Seg06]
26 139.999924 0.000000 0.000060 6.353386 -8.455240 -11.866105 139.999924
27 139.999924 0.000000 0.000060 5.570680 -6.440528 -10.183395 139.999924
[Rope4_Seg07]
26 139.999802 0.000000 0.000000 1.418925 -3.223492 -3.744983 139.999802
27 139.999802 0.000000 0.000000 1.154838 -1.950781 -2.635015 139.999802
[Rope4_Seg08]
26 139.999924 0.000000 0.000119 -0.893915 -1.739916 -1.943637 139.999924
27 139.999924 0.000000 0.000119 -0.980282 -1.033854 -1.359595 139.999924
[Rope4_Seg09]
26 90.185791 0.000060 0.000060 -135.617828 2.228885 0.850567 90.185791
27 90.185791 0.000060 0.000060 -135.617828 2.228885 0.850567 90.185791
[L_rear_hand01]
26 101.696655 -8.392275 -7.654577 -34.454281 -18.946800 151.655121 102.329041
27 101.696655 -8.392275 -7.654577 -34.454281 -18.946800 151.655121 102.329041
[L_rear_hand02]
26 102.726799 -1.568258 5.773216 83.407906 30.330435 172.796509 102.900848
27 102.726799 -1.568258 5.773216 83.407906 30.330435 172.796509 102.900848
[L_rear_hand03]
26 104.552910 9.721220 -10.420293 -161.379868 -16.473232 -150.512238 105.519653
27 104.552910 9.721220 -10.420293 -161.379868 -16.473232 -150.512238 105.519653
